{
	"asset":{
		"generator":"Khronos glTF Blender I/O v4.0.43",
		"version":"2.0"
	},
	"scene":0,
	"scenes":[
		{
			"name":"Scene",
			"nodes":[
				2
			]
		}
	],
	"nodes":[
		{
			"mesh":0,
			"name":"node_b72cae8c_6e57_4f23_b8d8_e9e8d566002d_mesh0"
		},
		{
			"children":[
				0
			],
			"name":"node_b72cae8c_6e57_4f23_b8d8_e9e8d566002d"
		},
		{
			"children":[
				1
			],
			"name":"node_75d897d0_f11d_43a1_9913_dbeeaa2776c1"
		}
	],
	"materials":[
		{
			"doubleSided":true,
			"name":"mat_0",
			"pbrMetallicRoughness":{
				"baseColorFactor":[
					0.8499999642372131,
					0.8499999642372131,
					0.8499999642372131,
					1
				],
				"metallicFactor":0,
				"roughnessFactor":0.5
			}
		}
	],
	"meshes":[
		{
			"name":"geometry_f54cc66b_79e5_4c36_9334_130956be9900",
			"primitives":[
				{
					"attributes":{
						"POSITION":0,
						"NORMAL":1
					},
					"indices":2,
					"material":0
				}
			]
		}
	],
	"accessors":[
		{
			"bufferView":0,
			"componentType":5126,
			"count":2117,
			"max":[
				0.3423883020877838,
				13.296380996704102,
				5.719355583190918
			],
			"min":[
				-19.51053237915039,
				0,
				-15.291149139404297
			],
			"type":"VEC3"
		},
		{
			"bufferView":1,
			"componentType":5126,
			"count":2117,
			"type":"VEC3"
		},
		{
			"bufferView":2,
			"componentType":5123,
			"count":4902,
			"type":"SCALAR"
		}
	],
	"bufferViews":[
		{
			"buffer":0,
			"byteLength":25404,
			"byteOffset":0,
			"target":34962
		},
		{
			"buffer":0,
			"byteLength":25404,
			"byteOffset":25404,
			"target":34962
		},
		{
			"buffer":0,
			"byteLength":9804,
			"byteOffset":50808,
			"target":34963
		}
	],
	"buffers":[
		{
			"byteLength":60612,
			"uri":"urban4.bin"
		}
	]
}
